<svg width="90" height="74" viewBox="0 0 90 74" fill="none" xmlns="http://www.w3.org/2000/svg">
<g id="Group 39469">
<g id="Group 33">
<path id="Vector 6" d="M27.9665 53.9766C31.9874 57.2529 36.8398 53.9766 38.7634 51.9289C37.1501 54.2248 32.8437 58.4815 28.5249 57.1412C24.2061 55.8009 20.6444 57.6997 19.4034 58.8166L14.0049 57.1412C16.9834 54.7212 23.9455 50.7003 27.9665 53.9766Z" fill="#859CFF"/>
<path id="Vector 7" d="M23.1625 60.0017C30.7869 63.4591 36.9534 56.3064 39.0836 52.2979C37.5398 56.566 32.6334 65.0269 25.3587 64.7261C18.0839 64.4252 13.3451 68.8826 11.8851 71.149L2.79165 70.7729C6.40509 65.7419 15.5381 56.5443 23.1625 60.0017Z" fill="#FF7861"/>
<g id="Mask group">
<mask id="mask0_2_17" style="mask-type:alpha" maskUnits="userSpaceOnUse" x="35" y="0" width="55" height="55">
<path id="Vector 6_2" d="M36.344 51.3719C47.6622 32.4586 47.2651 9.85949 45.6517 0.924072H89.0257V43.9258C70.4103 40.3516 48.1338 49.5104 39.3225 54.5366V51.7442H35.9717L36.344 51.3719Z" fill="#D9D9D9"/>
</mask>
<g mask="url(#mask0_2_17)">
<g id="Group 4">
<path id="Rectangle 13" d="M35.2261 0.92511H80.4109C85.0654 0.92511 88.8386 4.6983 88.8386 9.35277V54.5376H35.2261V0.92511Z" fill="#FCD116"/>
<path id="Rectangle 14" d="M25.921 10.2372H71.1059C75.7603 10.2372 79.5335 14.0104 79.5335 18.6648V63.8497H25.921V10.2372Z" fill="#52AD65"/>
<path id="Rectangle 15" d="M16.6113 19.5401H61.7962C66.4506 19.5401 70.2238 23.3133 70.2238 27.9677V73.1526H16.6113V19.5401Z" fill="#0038A8"/>
<path id="Rectangle 16" d="M7.30371 28.8475H52.4885C57.143 28.8475 60.9162 32.6207 60.9162 37.2752V82.46H7.30371V28.8475Z" fill="#FC2B1E"/>
</g>
</g>
</g>
</g>
</g>
</svg>
