<svg width="683" height="385" viewBox="0 0 683 385" fill="none" xmlns="http://www.w3.org/2000/svg">
<g filter="url(#filter0_d_2_512)">
<path fill-rule="evenodd" clip-rule="evenodd" d="M39.4854 2C19.0508 2 2.48535 18.5655 2.48535 39V336C2.48535 356.435 19.0508 373 39.4854 373H604.66C625.094 373 641.66 356.435 641.66 336V154.654C641.66 151.637 644.311 149.307 647.303 149.695L665.258 152.024C670.059 152.646 672.854 146.763 669.338 143.434L643.222 118.712C642.225 117.768 641.66 116.455 641.66 115.081V39C641.66 18.5655 625.094 2 604.66 2H39.4854Z" fill="white"/>
<path d="M643.222 118.712L644.254 117.623L643.222 118.712ZM665.258 152.024L665.065 153.511L665.258 152.024ZM669.338 143.434L670.369 142.345L669.338 143.434ZM647.303 149.695L647.11 151.183L647.303 149.695ZM3.98535 39C3.98535 19.3939 19.8792 3.5 39.4854 3.5V0.5C18.2224 0.5 0.985352 17.737 0.985352 39H3.98535ZM3.98535 336V39H0.985352V336H3.98535ZM39.4854 371.5C19.8793 371.5 3.98535 355.606 3.98535 336H0.985352C0.985352 357.263 18.2224 374.5 39.4854 374.5V371.5ZM604.66 371.5H39.4854V374.5H604.66V371.5ZM640.16 336C640.16 355.606 624.266 371.5 604.66 371.5V374.5C625.923 374.5 643.16 357.263 643.16 336H640.16ZM640.16 154.654V336H643.16V154.654H640.16ZM647.11 151.183L665.065 153.511L665.451 150.536L647.495 148.208L647.11 151.183ZM670.369 142.345L644.254 117.623L642.191 119.802L668.307 144.523L670.369 142.345ZM640.16 39V115.081H643.16V39H640.16ZM604.66 3.5C624.266 3.5 640.16 19.3939 640.16 39H643.16C643.16 17.737 625.923 0.5 604.66 0.5V3.5ZM39.4854 3.5H604.66V0.5H39.4854V3.5ZM644.254 117.623C643.555 116.962 643.16 116.043 643.16 115.081H640.16C640.16 116.867 640.894 118.574 642.191 119.802L644.254 117.623ZM665.065 153.511C671.307 154.321 674.94 146.672 670.369 142.345L668.307 144.523C670.768 146.853 668.812 150.972 665.451 150.536L665.065 153.511ZM643.16 154.654C643.16 152.542 645.016 150.911 647.11 151.183L647.495 148.208C643.606 147.704 640.16 150.732 640.16 154.654H643.16Z" fill="white"/>
</g>
<defs>
<filter id="filter0_d_2_512" x="0.985352" y="0.5" width="681.437" height="384" filterUnits="userSpaceOnUse" color-interpolation-filters="sRGB">
<feFlood flood-opacity="0" result="BackgroundImageFix"/>
<feColorMatrix in="SourceAlpha" type="matrix" values="0 0 0 0 0 0 0 0 0 0 0 0 0 0 0 0 0 0 127 0" result="hardAlpha"/>
<feOffset dx="10" dy="10"/>
<feComposite in2="hardAlpha" operator="out"/>
<feColorMatrix type="matrix" values="0 0 0 0 0 0 0 0 0 0 0 0 0 0 0 0 0 0 0.07 0"/>
<feBlend mode="normal" in2="BackgroundImageFix" result="effect1_dropShadow_2_512"/>
<feBlend mode="normal" in="SourceGraphic" in2="effect1_dropShadow_2_512" result="shape"/>
</filter>
</defs>
</svg>
