<svg width="667" height="121" viewBox="0 0 667 121" fill="none" xmlns="http://www.w3.org/2000/svg">
<g filter="url(#filter0_d_20_229)">
<path fill-rule="evenodd" clip-rule="evenodd" d="M30.5204 1.62354C22.2361 1.62354 15.5204 8.33926 15.5204 16.6235V33.8899C15.5204 35.6384 14.6069 37.2599 13.1115 38.1661L4.32331 43.4913C0.802615 45.6247 1.22427 50.8608 5.04098 52.4033L12.3939 55.3749C14.2834 56.1385 15.5204 57.9726 15.5204 60.0106V94C15.5204 102.284 22.2361 109 30.5204 109H639.695C647.979 109 654.695 102.284 654.695 94V16.6235C654.695 8.33926 647.979 1.62354 639.695 1.62354H30.5204Z" fill="white"/>
<path d="M12.3939 55.3749L11.8318 56.7656L12.3939 55.3749ZM5.04098 52.4033L5.60303 51.0125L5.04098 52.4033ZM13.1115 38.1661L12.3342 36.8832L13.1115 38.1661ZM17.0204 16.6235C17.0204 9.16769 23.0645 3.12354 30.5204 3.12354V0.123535C21.4077 0.123535 14.0204 7.51084 14.0204 16.6235H17.0204ZM17.0204 33.8899V16.6235H14.0204V33.8899H17.0204ZM5.10066 44.7742L13.8889 39.4489L12.3342 36.8832L3.54595 42.2085L5.10066 44.7742ZM12.9559 53.9842L5.60303 51.0125L4.47892 53.794L11.8318 56.7656L12.9559 53.9842ZM17.0204 94V60.0106H14.0204V94H17.0204ZM30.5204 107.5C23.0645 107.5 17.0204 101.456 17.0204 94H14.0204C14.0204 103.113 21.4077 110.5 30.5204 110.5V107.5ZM639.695 107.5H30.5204V110.5H639.695V107.5ZM653.195 94C653.195 101.456 647.151 107.5 639.695 107.5V110.5C648.807 110.5 656.195 103.113 656.195 94H653.195ZM653.195 16.6235V94H656.195V16.6235H653.195ZM639.695 3.12354C647.151 3.12354 653.195 9.16769 653.195 16.6235H656.195C656.195 7.51084 648.807 0.123535 639.695 0.123535V3.12354ZM30.5204 3.12354H639.695V0.123535H30.5204V3.12354ZM11.8318 56.7656C13.1545 57.3002 14.0204 58.584 14.0204 60.0106H17.0204C17.0204 57.3612 15.4123 54.9769 12.9559 53.9842L11.8318 56.7656ZM3.54595 42.2085C-1.03094 44.9819 -0.4828 51.7887 4.47892 53.794L5.60303 51.0125C2.93133 49.9328 2.63617 46.2676 5.10066 44.7742L3.54595 42.2085ZM14.0204 33.8899C14.0204 35.1139 13.381 36.2489 12.3342 36.8832L13.8889 39.4489C15.8329 38.2709 17.0204 36.163 17.0204 33.8899H14.0204Z" fill="white"/>
</g>
<defs>
<filter id="filter0_d_20_229" x="0.414062" y="0.123535" width="665.781" height="120.376" filterUnits="userSpaceOnUse" color-interpolation-filters="sRGB">
<feFlood flood-opacity="0" result="BackgroundImageFix"/>
<feColorMatrix in="SourceAlpha" type="matrix" values="0 0 0 0 0 0 0 0 0 0 0 0 0 0 0 0 0 0 127 0" result="hardAlpha"/>
<feOffset dx="10" dy="10"/>
<feComposite in2="hardAlpha" operator="out"/>
<feColorMatrix type="matrix" values="0 0 0 0 0 0 0 0 0 0 0 0 0 0 0 0 0 0 0.07 0"/>
<feBlend mode="normal" in2="BackgroundImageFix" result="effect1_dropShadow_20_229"/>
<feBlend mode="normal" in="SourceGraphic" in2="effect1_dropShadow_20_229" result="shape"/>
</filter>
</defs>
</svg>
